<svg xmlns="http://www.w3.org/2000/svg" width="1280" height="480" viewBox="0 0 1280 480" fill="none" role="img" aria-labelledby="title desc">
  <title id="title">HiveMind — One memory. Every agent.</title>
  <desc id="desc">A dark navy banner with mint and violet nodes connecting Codex, Grok, and Antigravity to one local memory.</desc>
  <defs>
    <linearGradient id="bg" x1="0" y1="0" x2="1280" y2="480" gradientUnits="userSpaceOnUse"><stop stop-color="#101B2C"/><stop offset="1" stop-color="#080E19"/></linearGradient>
    <linearGradient id="accent" x1="789" y1="137" x2="1037" y2="361" gradientUnits="userSpaceOnUse"><stop stop-color="#8EF0CC"/><stop offset="1" stop-color="#A59FFF"/></linearGradient>
    <pattern id="grid" width="32" height="32" patternUnits="userSpaceOnUse"><circle cx="1" cy="1" r="1" fill="#A3B1CC" opacity=".13"/></pattern>
  </defs>
  <rect width="1280" height="480" rx="24" fill="url(#bg)"/>
  <rect x="640" width="640" height="480" rx="24" fill="url(#grid)"/>
  <rect x="1" y="1" width="1278" height="478" rx="23" stroke="#29364B"/>
  <path d="M65 51 82 41 99 51v20L82 81 65 71Z" stroke="#8EF0CC" stroke-width="2"/>
  <path d="M75 52v18m14-18v18M75 61h14" stroke="#8EF0CC" stroke-width="2"/>
  <text x="116" y="69" fill="#EDF3FC" font-family="Segoe UI,Arial,sans-serif" font-size="23" font-weight="600" letter-spacing="5">HIVEMIND</text>
  <text x="64" y="186" fill="#F3F7FD" font-family="Segoe UI,Arial,sans-serif" font-size="66" font-weight="700" letter-spacing="-2">One memory.</text>
  <text x="64" y="260" fill="#8EF0CC" font-family="Segoe UI,Arial,sans-serif" font-size="66" font-weight="700" letter-spacing="-2">Every agent.</text>
  <text x="67" y="309" fill="#A8B7CE" font-family="Segoe UI,Arial,sans-serif" font-size="21">Your context, your workflow, your local folder.</text>
  <rect x="64" y="364" width="124" height="34" rx="17" fill="#172E2C" stroke="#33524A"/>
  <circle cx="81" cy="381" r="4" fill="#8EF0CC"/>
  <text x="94" y="386" fill="#AAEED9" font-family="Segoe UI,Arial,sans-serif" font-size="12" font-weight="600" letter-spacing="1">LOCAL FIRST</text>
  <rect x="200" y="364" width="110" height="34" rx="17" fill="#1E213B" stroke="#3C3D62"/>
  <text x="220" y="386" fill="#C1BCFF" font-family="Segoe UI,Arial,sans-serif" font-size="12" font-weight="600" letter-spacing="1">MCP NATIVE</text>
  <rect x="322" y="364" width="142" height="34" rx="17" fill="#1B2638" stroke="#36435A"/>
  <text x="342" y="386" fill="#C5D2E8" font-family="Segoe UI,Arial,sans-serif" font-size="12" font-weight="600" letter-spacing="1">OBSIDIAN READY</text>
  <circle cx="936" cy="241" r="166" stroke="#2A3650" stroke-dasharray="3 9"/>
  <circle cx="936" cy="241" r="121" stroke="#24324A"/>
  <path d="m936 214-64-89m89 114 146-25m-185 58-68 85" stroke="url(#accent)" stroke-width="2"/>
  <circle cx="904" cy="170" r="4" fill="#8EF0CC"/>
  <circle cx="1041" cy="225" r="4" fill="#A59FFF"/>
  <circle cx="884" cy="319" r="4" fill="#A59FFF"/>
  <path d="m936 175 58 33v66l-58 33-58-33v-66Z" fill="#142737" stroke="url(#accent)" stroke-width="2"/>
  <path d="m918 230 18-10 18 10v22l-18 10-18-10Z" stroke="#8EF0CC" stroke-width="2"/>
  <path d="m918 230 18 11 18-11m-18 11v21" stroke="#8EF0CC" stroke-width="2"/>
  <text x="936" y="288" text-anchor="middle" fill="#DAE9F5" font-family="Segoe UI,Arial,sans-serif" font-size="10" font-weight="600" letter-spacing="2">MEMORY</text>
  <rect x="782" y="75" width="154" height="58" rx="15" fill="#12242C" stroke="#456D63"/>
  <circle cx="804" cy="104" r="5" fill="#8EF0CC"/>
  <text x="822" y="110" fill="#E0F8EF" font-family="Segoe UI,Arial,sans-serif" font-size="18" font-weight="600">Codex</text>
  <rect x="1044" y="183" width="154" height="58" rx="15" fill="#20203B" stroke="#625C8F"/>
  <circle cx="1066" cy="212" r="5" fill="#BBB1FF"/>
  <text x="1084" y="218" fill="#EAE6FF" font-family="Segoe UI,Arial,sans-serif" font-size="18" font-weight="600">Grok</text>
  <rect x="746" y="350" width="214" height="58" rx="15" fill="#1A243A" stroke="#435577"/>
  <circle cx="768" cy="379" r="5" fill="#92B9FF"/>
  <text x="786" y="385" fill="#E1ECFF" font-family="Segoe UI,Arial,sans-serif" font-size="18" font-weight="600">Antigravity</text>
  <text x="1166" y="443" text-anchor="end" fill="#7286A2" font-family="Consolas,monospace" font-size="11" letter-spacing="2">BUILT TO REMEMBER.</text>
</svg>
